<svg xmlns="http://www.w3.org/2000/svg" xmlns:xlink="http://www.w3.org/1999/xlink" viewBox="0 0 1024 1024"><defs><style>.cls-1{isolation:isolate;}.cls-2{fill:#3d3d3d;}.cls-3{fill:#4c4b4b;}.cls-4{fill:#d95cf1;}.cls-5{fill:url(#linear-gradient);}.cls-6,.cls-7,.cls-8,.cls-9{mix-blend-mode:screen;}.cls-6{fill:url(#radial-gradient);}.cls-7{opacity:0.71;fill:url(#radial-gradient-2);}.cls-8{fill:url(#radial-gradient-3);}.cls-9{fill:url(#radial-gradient-4);}</style><linearGradient id="linear-gradient" x1="573.01" y1="366.8" x2="578.7" y2="693.8" gradientUnits="userSpaceOnUse"><stop offset="0" stop-color="#505050"/><stop offset="0.01" stop-color="#5b5b5b"/><stop offset="0.1" stop-color="#aaa"/><stop offset="0.14" stop-color="#c9c9c9"/><stop offset="0.31" stop-color="#f9f9f9"/><stop offset="0.4" stop-color="#c9c9c9"/><stop offset="0.47" stop-color="#b7b7b7"/><stop offset="0.61" stop-color="#c9c9c9"/><stop offset="0.67" stop-color="#f9f9f9"/><stop offset="0.78" stop-color="#c9c9c9"/><stop offset="0.91" stop-color="#505050"/></linearGradient><radialGradient id="radial-gradient" cx="-539.43" cy="25.04" r="37.22" gradientTransform="matrix(2.34, -2.03, 1.17, 1.35, 1857.49, -661.47)" gradientUnits="userSpaceOnUse"><stop offset="0" stop-color="#e8e8e8"/><stop offset="0.14" stop-color="#737373"/><stop offset="0.15" stop-color="#6e6e6e"/><stop offset="0.26" stop-color="#4c4c4c"/><stop offset="0.37" stop-color="#303030"/><stop offset="0.49" stop-color="#1b1b1b"/><stop offset="0.62" stop-color="#0c0c0c"/><stop offset="0.77" stop-color="#030303"/><stop offset="1"/></radialGradient><radialGradient id="radial-gradient-2" cx="-771.71" cy="2291.4" r="55.74" gradientTransform="matrix(2.99, -1.44, 0.46, 0.96, 1745.85, -2826.52)" xlink:href="#radial-gradient"/><radialGradient id="radial-gradient-3" cx="-254.67" cy="3096.14" r="37.34" gradientTransform="matrix(3.72, -0.92, 0.58, 2.36, -386.42, -6945.97)" xlink:href="#radial-gradient"/><radialGradient id="radial-gradient-4" cx="-5235.57" cy="-536.91" r="37.34" gradientTransform="matrix(0.61, -0.53, 0.51, 0.58, 3901.69, -1870.15)" xlink:href="#radial-gradient"/></defs><title>Artboard 1</title><g class="cls-1"><g id="Layer_1" data-name="Layer 1"><path class="cls-2" d="M751.56,949.21H272.44C122,949.21,0,827.23,0,676.77v74.79C0,902,122,1024,272.44,1024H751.56C902,1024,1024,902,1024,751.56V676.77C1024,827.23,902,949.21,751.56,949.21ZM1024,745.06c0,154-124.83,278.92-278.92,278.92H279C124.92,1024,0,899.09,0,745.06V691.19C0,845.27,124.92,970.11,279,970.11H745.07c154.09,0,278.92-124.84,278.92-278.92Z"/><path class="cls-2" d="M1024,691.19v53.87c0,154-124.83,278.92-278.92,278.92H279C124.92,1024,0,899.09,0,745.06V691.19C0,845.27,124.92,970.11,279,970.11H745.07C899.16,970.11,1024,845.27,1024,691.19Z"/><rect class="cls-2" width="1024" height="949.21" rx="272.44"/><rect class="cls-2" width="1024" height="1024" rx="272.44"/><path class="cls-3" d="M1024,691.19v53.87c0,154-124.83,278.92-278.92,278.92H279C124.92,1024,0,899.09,0,745.06V691.19C0,845.27,124.92,970.11,279,970.11H745.07C899.16,970.11,1024,845.27,1024,691.19Z"/><path class="cls-4" d="M743.66,191.39V414.51a18.11,18.11,0,0,0-1.13-2,217.48,217.48,0,0,1-19.94,26.66,174.13,174.13,0,0,1-20.9,19.56c-1.75,1.42-3.59,2.67-5.34,4-.88.66-1.76,1.29-2.59,1.91L691,466.41c-1.84,1.12-3.47,2.33-5.26,3.38s-3.63,2-5.3,3-3.67,1.75-5.34,2.71l-2.55,1.3c-.83.45-1.79.75-2.66,1.12-1.76.71-3.43,1.5-5.09,2.21-1.8.55-3.47,1.17-5.14,1.8s-3.42,1-5,1.5a36.94,36.94,0,0,1-4.09,1.17v-217H510a22.62,22.62,0,0,1-22.61-22.66V197.06A22.61,22.61,0,0,1,510,174.45h216.7A17,17,0,0,1,743.66,191.39Z"/><path class="cls-4" d="M740,523.15c1.29-2.46,2.5-4.93,3.63-7.47v102c0,129-106,233.84-235.47,231.88C380.9,847.6,279.81,741.38,279.81,614.1V584.81a27.58,27.58,0,0,1,27.58-27.58h38a27.55,27.55,0,0,1,27.53,27.58v30.25c0,75.76,59.7,139.55,135.47,141.3,78.06,1.84,142.18-61.08,142.18-138.72V596.16c.12,0,.29-.09.42-.13,3.29-1,6.75-2.25,10.13-3.54s6.89-2.88,10.27-4.43a107,107,0,0,0,10-5c3.25-1.84,6.38-3.8,9.51-5.72,3-2.13,6-4.21,8.85-6.43s5.59-4.54,8.3-6.92a97.48,97.48,0,0,0,7.67-7.39A145.63,145.63,0,0,0,740,523.15Z"/><path class="cls-5" d="M742.52,378.21c6.48,10.37,10.29,22.31,12.14,34.82a123.38,123.38,0,0,1-1.33,38.31A140.34,140.34,0,0,1,740,488.78a145.55,145.55,0,0,1-24.29,33.44,101.47,101.47,0,0,1-7.7,7.38c-2.69,2.36-5.34,4.8-8.29,6.92s-5.86,4.3-8.85,6.42c-3.12,1.92-6.27,3.87-9.5,5.71a106.26,106.26,0,0,1-10,5.07c-3.38,1.55-6.94,3.27-10.26,4.43s-6.83,2.55-10.14,3.54-6.75,2.08-10,2.86A262.66,262.66,0,0,1,604,571c-11.37,1.22-21.68,1.86-30.88,2.47s-17.27,1.19-24.22,1.94c-1.75.17-3.33.45-5,.59s-3,.58-4.47.77l-2.26.31-1.14.12-1.13.29c-1.5.39-3,.72-4.58,1-12.42,2.7-25.57,8-39.09,15.35a192,192,0,0,0-40.62,29.85c-3.23,3.21-6.82,6.5-9.9,10.14l-5,5.52-4.71,5.92c-3.44,4-6.26,8.36-9.51,13-1.81,2.28-3,4.67-4.61,7.13s-3.11,5-4.87,7.64c-1.67-2.53-3.15-5.17-4.59-7.89a66.52,66.52,0,0,1-3.89-8.36c-2-5.67-4.24-11.72-5.19-17.77-.57-3-1.14-6.16-1.6-9.3s-.48-6.21-.65-9.38c-.09-1.59-.16-3.18-.19-4.78a41.87,41.87,0,0,1,.07-4.76c.13-3.17.4-6.33.64-9.56a79.6,79.6,0,0,1,1.32-9.54c.54-3.18,1.22-6.34,1.87-9.56s1.74-6.21,2.67-9.36a92.09,92.09,0,0,1,3.14-9.33c1.24-3,2.47-6.09,3.83-9.1.68-1.51,1.33-3.05,2.05-4.55l2.33-4.39,4.92-8.74c1.67-2.92,3.71-5.57,5.6-8.37a166.59,166.59,0,0,1,62.79-54.19c3.27-1.57,6.56-3.11,9.89-4.59l2.5-1.11,2.59-.94,5.21-1.81c3.46-1.19,7-2.38,10.48-3.4s6.85-1.77,10.2-2.51a248.11,248.11,0,0,1,37.47-5c23-1.35,41.48-.7,55.85-1.25,1.88,0,3.52-.13,5.23-.2s3.27-.22,4.91-.27a17.54,17.54,0,0,0,2.31-.19c.71-.09,1.45-.13,2.18-.19a26.49,26.49,0,0,0,4.5-.5c1.49-.29,3.07-.44,4.66-.65,1.54-.39,3.09-.81,4.74-1.11a34.06,34.06,0,0,0,4.87-1.31,52.3,52.3,0,0,0,5-1.51c1.65-.63,3.33-1.25,5.12-1.81s3.35-1.48,5.11-2.21c.87-.37,1.81-.68,2.66-1.11l2.56-1.31c1.67-.94,3.66-1.63,5.31-2.69s3.47-2,5.31-3,3.42-2.26,5.27-3.38l2.74-1.74c.83-.64,1.69-1.28,2.58-1.91,1.74-1.29,3.61-2.58,5.36-4a179.68,179.68,0,0,0,20.9-19.56A222.86,222.86,0,0,0,742.52,378.21Z"/><path class="cls-6" d="M710.84,393.39c24.1,27.76,4.62,84.14-43.51,125.92s-106.7,53.18-130.8,25.42-4.61-84.13,43.52-125.92S686.74,365.63,710.84,393.39Z"/><path class="cls-7" d="M665.5,398.31c14.24,29.43-48.79,89.34-140.77,133.81s-178.11,56.67-192.34,27.24S381.2,470,473.18,425.55,651.28,368.87,665.5,398.31Z"/><path class="cls-8" d="M613.81,553.69c12.05,48.64-40.31,103.45-116.95,122.42s-148.55-5.05-160.6-53.67S376.59,519,453.23,500,601.77,505.06,613.81,553.69Z"/><path class="cls-9" d="M451.15,575.61c10.47,12,8.73,30.69-3.88,41.64s-31.32,10.06-41.78-2-8.72-30.69,3.89-41.64S440.69,563.56,451.15,575.61Z"/></g></g></svg>