<svg xmlns="http://www.w3.org/2000/svg" xmlns:xlink="http://www.w3.org/1999/xlink" viewBox="0 0 64 64"><defs><style>.cls-1{isolation:isolate;}.cls-2{fill:#3d3d3d;}.cls-3{fill:#4c4b4b;}.cls-4{fill:#d95cf1;}.cls-5{fill:url(#linear-gradient);}.cls-6,.cls-7,.cls-8,.cls-9{mix-blend-mode:screen;}.cls-6{fill:url(#radial-gradient);}.cls-7{opacity:0.71;fill:url(#radial-gradient-2);}.cls-8{fill:url(#radial-gradient-3);}.cls-9{fill:url(#radial-gradient-4);}</style><linearGradient id="linear-gradient" x1="35.81" y1="22.92" x2="36.17" y2="43.36" gradientUnits="userSpaceOnUse"><stop offset="0" stop-color="#505050"/><stop offset="0.01" stop-color="#5b5b5b"/><stop offset="0.1" stop-color="#aaa"/><stop offset="0.14" stop-color="#c9c9c9"/><stop offset="0.31" stop-color="#f9f9f9"/><stop offset="0.4" stop-color="#c9c9c9"/><stop offset="0.47" stop-color="#b7b7b7"/><stop offset="0.61" stop-color="#c9c9c9"/><stop offset="0.67" stop-color="#f9f9f9"/><stop offset="0.78" stop-color="#c9c9c9"/><stop offset="0.91" stop-color="#505050"/></linearGradient><radialGradient id="radial-gradient" cx="193.04" cy="-351.5" r="4.63" gradientTransform="matrix(1.18, -1.02, 0.59, 0.68, 18.88, 464.98)" gradientUnits="userSpaceOnUse"><stop offset="0" stop-color="#e8e8e8"/><stop offset="0.14" stop-color="#737373"/><stop offset="0.15" stop-color="#6e6e6e"/><stop offset="0.26" stop-color="#4c4c4c"/><stop offset="0.37" stop-color="#303030"/><stop offset="0.49" stop-color="#1b1b1b"/><stop offset="0.62" stop-color="#0c0c0c"/><stop offset="0.77" stop-color="#030303"/><stop offset="1"/></radialGradient><radialGradient id="radial-gradient-2" cx="-154.01" cy="1307.45" r="6.93" gradientTransform="matrix(1.5, -0.73, 0.23, 0.48, -41.22, -709.9)" xlink:href="#radial-gradient"/><radialGradient id="radial-gradient-3" cx="298.28" cy="3048.43" r="4.65" gradientTransform="matrix(1.87, -0.46, 0.29, 1.18, -1421.7, -3436.68)" xlink:href="#radial-gradient"/><radialGradient id="radial-gradient-4" cx="-4260.55" cy="-2232.61" r="4.65" gradientTransform="matrix(0.31, -0.27, 0.25, 0.29, 1904.67, -443.87)" xlink:href="#radial-gradient"/></defs><title>Artboard 2</title><g class="cls-1"><g id="Layer_1" data-name="Layer 1"><path class="cls-2" d="M47,59.33H17a17,17,0,0,1-17-17V47A17,17,0,0,0,17,64H47A17,17,0,0,0,64,47V42.3A17,17,0,0,1,47,59.33ZM64,46.57A17.43,17.43,0,0,1,46.57,64H17.43A17.44,17.44,0,0,1,0,46.57V43.2A17.43,17.43,0,0,0,17.43,60.63H46.57A17.43,17.43,0,0,0,64,43.2Z"/><path class="cls-2" d="M64,43.2v3.37A17.43,17.43,0,0,1,46.57,64H17.43A17.44,17.44,0,0,1,0,46.57V43.2A17.43,17.43,0,0,0,17.43,60.63H46.57A17.43,17.43,0,0,0,64,43.2Z"/><rect class="cls-2" width="64" height="59.33" rx="17.03"/><rect class="cls-2" width="64" height="64" rx="17.03"/><path class="cls-3" d="M64,43.2v3.37A17.43,17.43,0,0,1,46.57,64H17.43A17.44,17.44,0,0,1,0,46.57V43.2A17.43,17.43,0,0,0,17.43,60.63H46.57A17.43,17.43,0,0,0,64,43.2Z"/><path class="cls-4" d="M46.48,12v14c0-.05,0-.09-.07-.13a13.43,13.43,0,0,1-1.25,1.67,10.43,10.43,0,0,1-1.3,1.22l-.34.25-.16.12-.17.11c-.12.07-.22.15-.33.21l-.33.19c-.11.07-.23.11-.34.17L42,29.8l-.17.07-.32.14-.32.11c-.1,0-.21.06-.31.09l-.26.08V16.72H31.88a1.41,1.41,0,0,1-1.42-1.41v-3a1.42,1.42,0,0,1,1.42-1.42H45.42A1.07,1.07,0,0,1,46.48,12Z"/><path class="cls-4" d="M46.25,32.7c.08-.16.16-.31.23-.47V38.6a14.5,14.5,0,1,1-29-.22V36.55a1.72,1.72,0,0,1,1.72-1.72h2.38a1.72,1.72,0,0,1,1.72,1.72v1.89a8.77,8.77,0,0,0,8.46,8.83,8.68,8.68,0,0,0,8.89-8.67V37.26h0l.63-.22a5.92,5.92,0,0,0,.64-.28c.21-.1.43-.19.63-.31l.59-.36.55-.4a5.4,5.4,0,0,0,.52-.43,5.27,5.27,0,0,0,.48-.46A9.22,9.22,0,0,0,46.25,32.7Z"/><path class="cls-5" d="M46.41,23.64a5.79,5.79,0,0,1,.76,2.17,7.77,7.77,0,0,1-.09,2.4,8.62,8.62,0,0,1-.83,2.34,9.22,9.22,0,0,1-1.52,2.09c-.15.16-.31.31-.48.46a5.4,5.4,0,0,1-.52.43l-.55.4c-.2.12-.39.25-.59.36s-.42.22-.63.32-.43.2-.64.27l-.63.23c-.21.06-.43.13-.63.17a15.46,15.46,0,0,1-2.31.41c-.71.08-1.36.11-1.93.15L34.3,36,34,36l-.28,0-.14,0h-.14l-.29.07a9.41,9.41,0,0,0-2.44,1A11.91,11.91,0,0,0,28.16,39c-.2.2-.43.41-.62.64l-.31.34-.3.37c-.21.25-.39.53-.59.81s-.19.29-.29.45l-.3.48a5,5,0,0,1-.29-.5,3.48,3.48,0,0,1-.24-.52,5.92,5.92,0,0,1-.33-1.11c0-.19-.07-.39-.1-.58s0-.39,0-.59,0-.2,0-.3v-.29c0-.2,0-.4,0-.6a5.77,5.77,0,0,1,.09-.6c0-.2.07-.39.11-.6s.11-.38.17-.58a5.66,5.66,0,0,1,.2-.58q.11-.28.24-.57l.12-.29.15-.27.31-.55a5.91,5.91,0,0,1,.35-.52,10.37,10.37,0,0,1,3.92-3.39l.62-.28.16-.07.16-.06.32-.12.66-.21.64-.16a16.41,16.41,0,0,1,2.34-.31c1.43-.08,2.59,0,3.49-.08h.33l.3,0h.28a2.4,2.4,0,0,0,.28,0l.3,0,.29-.07a1.77,1.77,0,0,0,.31-.08c.1,0,.21-.05.31-.1l.32-.11.32-.14.17-.07.16-.08c.1-.06.22-.1.33-.17l.33-.19.33-.21.17-.11.16-.12.34-.24a10.55,10.55,0,0,0,1.3-1.23A13.28,13.28,0,0,0,46.41,23.64Z"/><path class="cls-6" d="M44.43,24.59c1.5,1.73.29,5.26-2.72,7.87S35,35.78,33.53,34.05s-.28-5.26,2.72-7.87S42.92,22.85,44.43,24.59Z"/><path class="cls-7" d="M41.59,24.89c.89,1.84-3.05,5.59-8.79,8.37s-11.14,3.54-12,1.7,3.05-5.58,8.8-8.36S40.71,23.05,41.59,24.89Z"/><path class="cls-8" d="M38.36,34.61c.76,3-2.52,6.46-7.31,7.65s-9.28-.32-10-3.36,2.52-6.46,7.31-7.65S37.61,31.57,38.36,34.61Z"/><path class="cls-9" d="M28.2,36a1.89,1.89,0,1,1-2.61-.13A1.85,1.85,0,0,1,28.2,36Z"/></g></g></svg>